<?xml version="1.0" encoding="utf-8"?>
<svg version="1.0" xmlns="http://www.w3.org/2000/svg" width="700pt" height="700pt" viewBox="0 0 700 700">
<g>
	<path d="M191.5,9.9c7.5,0,13.5,6,13.5,13.5v469.4c0,1.2,1,2.2,2.2,2.2h469.4c7.5,0,13.5,6,13.5,13.5v91.6c0,7.5-6,13.5-13.5,13.5
		h-60.9c-1.2,0-2.2,1-2.2,2.2v60.9c0,7.5-6,13.5-13.5,13.5h-91.6c-7.5,0-13.5-6-13.5-13.5v-60.9c0-1.2-1-2.2-2.2-2.2H99.8
		c-7.5,0-13.5-6-13.5-13.5V207.1c0-1.2-1-2.2-2.2-2.2H23.4c-7.5,0-13.5-6-13.5-13.5V99.8c0-7.5,6-13.5,13.5-13.5h60.9
		c1.2,0,2.2-1,2.2-2.2V23.4c0-7.5,6-13.5,13.4-13.5H191.5 M115.5,586.6h545.4c1.2,0,2.2-1,2.2-2.2V524c0-1.2-1-2.2-2.2-2.2H191.5
		c-7.5,0-13.5-6-13.5-13.5V38.9c0-1.2-1-2.2-2.2-2.2h-60.3c-1.2,0-2.2,1-2.2,2.2v545.4C113.3,585.6,114.3,586.6,115.5,586.6
		 M38.9,178h45.3c1.2,0,2.2-1,2.2-2.2v-60.3c0-1.2-1-2.2-2.2-2.2H38.9c-1.2,0-2.2,1-2.2,2.2v60.3C36.9,177.1,37.7,178,38.9,178
		 M524,663h60.3c1.2,0,2.2-1,2.2-2.2v-45.3c0-1.2-1-2.2-2.2-2.2H524c-1.2,0-2.2,1-2.2,2.2v45.3C521.8,662.2,522.8,663,524,663
		 M600.1,86.4c7.5,0,13.5,6,13.5,13.5v360c0,7.5-6,13.5-13.5,13.5c-7.5,0-13.5-6-13.5-13.5V115.5c0-1.2-1-2.2-2.2-2.2H240
		c-7.5,0-13.5-6-13.5-13.5c0-7.5,6-13.5,13.5-13.5h360 M508.4,178c7.5,0,13.5,6,13.5,13.5V460c0,7.5-6,13.5-13.5,13.5
		s-13.5-6-13.5-13.5V207.1c0-1.2-1-2.2-2.2-2.2H240c-7.5,0-13.5-6-13.5-13.5c0-7.5,6-13.5,13.5-13.5h268.3 M191.5,0H99.8
		C87,0,76.5,10.4,76.5,23.4v53.2H23.4C10.4,76.6,0,87,0,99.8v91.6c0,12.8,10.4,23.4,23.4,23.4h53.2v385.3
		c0,12.8,10.4,23.4,23.4,23.4h385.2v53.2c0,12.8,10.4,23.4,23.4,23.4h91.6c12.8,0,23.4-10.4,23.4-23.4v-53.2h53.2
		c12.8,0,23.4-10.4,23.4-23.4v-91.6c0-12.8-10.4-23.4-23.4-23.4H214.8V23.4C214.8,10.4,204.4,0,191.5,0L191.5,0z M123.2,46.7h45
		v461.7c0,12.8,10.4,23.4,23.4,23.4h461.7v45H123.2V46.7L123.2,46.7z M46.7,123.2h29.8v45H46.7V123.2L46.7,123.2z M531.7,623.3h45
		v29.8h-45V623.3L531.7,623.3z M600.1,76.6H240c-12.8,0-23.4,10.4-23.4,23.4s10.4,23.4,23.4,23.4h336.7V460
		c0,12.8,10.4,23.4,23.4,23.4c12.8,0,23.4-10.4,23.4-23.4V99.8C623.3,87,612.9,76.6,600.1,76.6L600.1,76.6z M508.4,168.2H240
		c-12.8,0-23.4,10.4-23.4,23.4c0,12.9,10.4,23.4,23.4,23.4h245.1V460c0,12.8,10.4,23.4,23.4,23.4c12.8,0,23.4-10.4,23.4-23.4V191.5
		C531.7,178.6,521.3,168.2,508.4,168.2L508.4,168.2z"/>
</g>
</svg>
